<svg width="24" height="24" viewBox="0 0 24 24" fill="none" xmlns="http://www.w3.org/2000/svg">
<g id="Icon / line / breakfast">
<path id="Vector" d="M13.7007 9.84263L13.5566 9.10661L13.7007 9.84263ZM13.1745 9.67275L13.7179 9.15585L13.1745 9.67275ZM9.57835 10.264L10.2688 10.5569L9.57835 10.264ZM9.11934 10.6281L8.98623 9.89005L9.11934 10.6281ZM11.3292 6.83541C11.5145 7.20589 11.965 7.35606 12.3354 7.17082C12.7059 6.98558 12.8561 6.53507 12.6708 6.16459L11.3292 6.83541ZM11.8893 6.27858L11.2185 6.61399L11.2185 6.614L11.8893 6.27858ZM11.9829 4.77571L12.6069 5.19174L12.6069 5.19173L11.9829 4.77571ZM12.0172 4.72429L11.3931 4.30826L11.3931 4.30827L12.0172 4.72429ZM12.1107 3.22142L11.4399 3.55683L11.4399 3.55683L12.1107 3.22142ZM12.6708 2.66459C12.4856 2.29411 12.0351 2.14394 11.6646 2.32918C11.2941 2.51442 11.144 2.96493 11.3292 3.33541L12.6708 2.66459ZM8.32921 7.33541C8.51445 7.70589 8.96495 7.85606 9.33544 7.67082C9.70592 7.48558 9.85609 7.03507 9.67085 6.66459L8.32921 7.33541ZM8.88932 6.77858L8.2185 7.11399H8.2185L8.88932 6.77858ZM8.98289 5.27571L9.60692 5.69174L9.60692 5.69174L8.98289 5.27571ZM9.01717 5.22429L8.39313 4.80826L8.39313 4.80826L9.01717 5.22429ZM9.78156 3.38601C9.59631 3.01552 9.14581 2.86535 8.77533 3.0506C8.40484 3.23584 8.25467 3.68634 8.43991 4.05683L9.78156 3.38601ZM14.3292 7.33541C14.5144 7.70589 14.965 7.85606 15.3354 7.67082C15.7059 7.48558 15.8561 7.03508 15.6708 6.66459L14.3292 7.33541ZM14.8893 6.77858L15.5601 6.44318L15.5601 6.44317L14.8893 6.77858ZM14.9829 5.27571L15.6069 5.69174L15.6069 5.69173L14.9829 5.27571ZM15.0172 5.22429L14.3931 4.80826L14.3931 4.80827L15.0172 5.22429ZM15.1107 3.72142L14.4399 4.05682L14.4399 4.05683L15.1107 3.72142ZM15.6708 3.16459C15.4856 2.79411 15.0351 2.64394 14.6646 2.82918C14.2941 3.01442 14.144 3.46492 14.3292 3.83541L15.6708 3.16459ZM8.14286 12.2V12.95H15.8571V12.2V11.45H8.14286V12.2ZM12.4286 21V20.25H11.5714V21V21.75H12.4286V21ZM11.5714 21V20.25C8.85905 20.25 6.75 18.2098 6.75 15.8H6H5.25C5.25 19.134 8.12978 21.75 11.5714 21.75V21ZM18 15.8H17.25C17.25 18.2098 15.141 20.25 12.4286 20.25V21V21.75C15.8702 21.75 18.75 19.134 18.75 15.8H18ZM15.8571 12.2V12.95C16.676 12.95 17.25 13.5575 17.25 14.2H18H18.75C18.75 12.6333 17.4052 11.45 15.8571 11.45V12.2ZM8.14286 12.2V11.45C6.59475 11.45 5.25 12.6333 5.25 14.2H6H6.75C6.75 13.5575 7.32403 12.95 8.14286 12.95V12.2ZM14.1429 9.8V10.55C14.9617 10.55 15.5357 11.1575 15.5357 11.8H16.2857H17.0357C17.0357 10.2333 15.691 9.05 14.1429 9.05V9.8ZM9.57835 10.264L10.2688 10.5569C10.4601 10.1059 10.9539 9.75 11.5714 9.75V9V8.25C10.379 8.25 9.32482 8.94132 8.88793 9.97101L9.57835 10.264ZM13.7007 9.84263L13.8448 10.5787C13.9402 10.56 14.0398 10.55 14.1429 10.55V9.8V9.05C13.9427 9.05 13.7466 9.0694 13.5566 9.10661L13.7007 9.84263ZM11.5714 9V9.75C12.004 9.75 12.3802 9.92594 12.631 10.1896L13.1745 9.67275L13.7179 9.15585C13.1836 8.59417 12.4144 8.25 11.5714 8.25V9ZM16.2857 11.8H15.5357C15.5357 11.8829 15.5268 11.9633 15.51 12.0406L16.2428 12.2L16.9757 12.3594C17.0151 12.1782 17.0357 11.991 17.0357 11.8H16.2857ZM7.71429 12.2H8.46429C8.46429 11.8203 8.77741 11.4519 9.25244 11.3662L9.11934 10.6281L8.98623 9.89005C7.94428 10.078 6.96429 10.9546 6.96429 12.2H7.71429ZM13.7007 9.84263L13.5566 9.10661C13.623 9.0936 13.6798 9.11577 13.7179 9.15585L13.1745 9.67275L12.631 10.1896C12.9377 10.5121 13.396 10.6665 13.8448 10.5787L13.7007 9.84263ZM9.57835 10.264L8.88793 9.97101C8.89937 9.94404 8.91511 9.92623 8.92922 9.91506C8.94323 9.90399 8.96186 9.89445 8.98623 9.89005L9.11934 10.6281L9.25244 11.3662C9.69819 11.2859 10.0877 10.9837 10.2688 10.5569L9.57835 10.264ZM6 15.8H6.75V15H6H5.25V15.8H6ZM6 15H6.75V14.2H6H5.25V15H6ZM18 14.2H17.25V15H18H18.75V14.2H18ZM18 15H17.25V15.8H18H18.75V15H18ZM6 15V15.75H18V15V14.25H6V15ZM12 6.5L12.6708 6.16459L12.5601 5.94317L11.8893 6.27858L11.2185 6.614L11.3292 6.83541L12 6.5ZM11.9829 4.77571L12.6069 5.19173L12.6412 5.14031L12.0172 4.72429L11.3931 4.30827L11.3588 4.35969L11.9829 4.77571ZM12.1107 3.22142L12.7816 2.88601L12.6708 2.66459L12 3L11.3292 3.33541L11.4399 3.55683L12.1107 3.22142ZM12.0172 4.72429L12.6412 5.14031C13.0891 4.46849 13.1426 3.60819 12.7816 2.88601L12.1107 3.22142L11.4399 3.55683C11.5603 3.79755 11.5424 4.08432 11.3931 4.30826L12.0172 4.72429ZM11.8893 6.27858L12.5601 5.94317C12.4398 5.70245 12.4576 5.41568 12.6069 5.19174L11.9829 4.77571L11.3588 4.35969C10.911 5.03151 10.8574 5.89181 11.2185 6.61399L11.8893 6.27858ZM9.00003 7L9.67085 6.66459L9.56014 6.44317L8.88932 6.77858L8.2185 7.11399L8.32921 7.33541L9.00003 7ZM8.98289 5.27571L9.60692 5.69174L9.64121 5.64031L9.01717 5.22429L8.39313 4.80826L8.35885 4.85969L8.98289 5.27571ZM9.01717 5.22429L9.64121 5.64031C10.0891 4.96849 10.1426 4.10819 9.78156 3.38601L9.11074 3.72142L8.43991 4.05683C8.56028 4.29755 8.54243 4.58432 8.39313 4.80826L9.01717 5.22429ZM8.88932 6.77858L9.56014 6.44317C9.43978 6.20245 9.45763 5.91568 9.60692 5.69174L8.98289 5.27571L8.35885 4.85969C7.91097 5.53151 7.85741 6.39181 8.2185 7.11399L8.88932 6.77858ZM15 7L15.6708 6.66459L15.5601 6.44318L14.8893 6.77858L14.2185 7.11399L14.3292 7.33541L15 7ZM14.9829 5.27571L15.6069 5.69173L15.6412 5.64031L15.0172 5.22429L14.3931 4.80827L14.3588 4.85969L14.9829 5.27571ZM15.1107 3.72142L15.7816 3.38601L15.6708 3.16459L15 3.5L14.3292 3.83541L14.4399 4.05682L15.1107 3.72142ZM15.0172 5.22429L15.6412 5.64031C16.0891 4.96849 16.1426 4.10819 15.7816 3.38601L15.1107 3.72142L14.4399 4.05683C14.5603 4.29755 14.5424 4.58432 14.3931 4.80826L15.0172 5.22429ZM14.8893 6.77858L15.5601 6.44317C15.4398 6.20245 15.4576 5.91568 15.6069 5.69174L14.9829 5.27571L14.3588 4.85969C13.911 5.53151 13.8574 6.39181 14.2185 7.11399L14.8893 6.77858Z" fill="#F2F2F2"/>
</g>
</svg>
