<svg width="24" height="24" viewBox="0 0 24 24" fill="none" xmlns="http://www.w3.org/2000/svg">
<g id="Icon / line / calendar">
<path id="Rectangle 1910" d="M4.26588 6.98274C4.36239 5.93961 5.19543 5.11779 6.23865 5.02788C10.5269 4.65829 13.5044 4.65722 17.7583 5.0256C18.8066 5.11639 19.6407 5.94647 19.7335 6.99512C20.1079 11.2276 20.0734 14.2161 19.7203 18.484C19.6326 19.5444 18.7928 20.3889 17.7331 20.4787C13.4667 20.8405 10.4928 20.8397 6.28078 20.4805C5.21856 20.3899 4.37877 19.5409 4.292 18.4778C3.94716 14.253 3.87042 11.2572 4.26588 6.98274Z" stroke="#F2F2F2" stroke-width="1.5"/>
<path id="Vector 221" d="M8 3.25V6.75" stroke="#F2F2F2" stroke-width="1.5" stroke-linecap="round"/>
<path id="Vector 222" d="M16 3.25V6.75" stroke="#F2F2F2" stroke-width="1.5" stroke-linecap="round"/>
<path id="Vector 223" d="M4.5 9.75H19.5" stroke="#F2F2F2" stroke-width="1.5" stroke-linecap="round"/>
<path id="Vector 183" d="M8 13.25H8.01" stroke="#F2F2F2" stroke-width="2" stroke-linecap="round"/>
<path id="Vector 224" d="M8 16.75H8.01" stroke="#F2F2F2" stroke-width="2" stroke-linecap="round"/>
<path id="Vector 184" d="M12.0098 13.25H12.0198" stroke="#F2F2F2" stroke-width="2" stroke-linecap="round"/>
<path id="Vector 225" d="M12.0098 16.75H12.0198" stroke="#F2F2F2" stroke-width="2" stroke-linecap="round"/>
<path id="Vector 185" d="M16.0195 13.25H16.0295" stroke="#F2F2F2" stroke-width="2" stroke-linecap="round"/>
<path id="Vector 226" d="M16.0195 16.75H16.0295" stroke="#F2F2F2" stroke-width="2" stroke-linecap="round"/>
</g>
</svg>
