<svg width="24" height="24" viewBox="0 0 24 24" fill="none" xmlns="http://www.w3.org/2000/svg">
<g id="Icon / line / package-2">
<path id="Polygon 2" d="M3.38675 7.5C3.13755 7.89058 3 8.33949 3 8.80613V15.1939C3 16.1271 3.55021 16.9895 4.44338 17.4562L10.5566 20.65C11.0032 20.8833 11.5016 21 12 21M3.38675 7.5C3.63595 7.10942 3.99679 6.77717 4.44338 6.54385L7.5 4.94691M3.38675 7.5L12 12M12 12V21M12 12L16.3066 9.75M12 21C12.4984 21 12.9968 20.8833 13.4434 20.65L19.5566 17.4562C20.4498 16.9895 21 16.1271 21 15.1939V8.80613C21 8.33949 20.8624 7.89058 20.6132 7.5M20.6132 7.5C20.3641 7.10942 20.0032 6.77717 19.5566 6.54385L13.4434 3.34998C12.5502 2.88334 11.4498 2.88334 10.5566 3.34998L7.5 4.94691M20.6132 7.5L16.3066 9.75M16.3066 9.75L7.5 4.94691M16.3066 9.75V13" stroke="#C2C2C2" stroke-width="1.5" stroke-linecap="round"/>
</g>
</svg>
