<svg width="24" height="24" viewBox="0 0 24 24" fill="none" xmlns="http://www.w3.org/2000/svg">
<g id="Icon / line / settings-02">
<circle id="Ellipse 2841" cx="12" cy="12" r="3" stroke="#C2C2C2" stroke-width="1.5"/>
<path id="Intersect" d="M14.0002 4.02152C14.0002 3.55449 13.6775 3.14367 13.2146 3.08124C12.8175 3.02766 12.4121 3 12.0002 3C11.5883 3 11.1829 3.02767 10.7857 3.08124C10.3229 3.14367 10.0002 3.5545 10.0002 4.02153V4.17129C10.0002 4.83491 9.55582 5.40496 8.95831 5.69371C8.6454 5.84492 8.34546 6.01873 8.06061 6.21303C7.51251 6.58688 6.79686 6.68645 6.2223 6.35472L6.09152 6.27922C5.68745 6.04593 5.17085 6.11959 4.88486 6.48825C4.38949 7.12682 3.97818 7.83385 3.66754 8.59276C3.4908 9.02456 3.68534 9.50882 4.0894 9.7421L4.22183 9.81856C4.79595 10.15 5.06778 10.8189 5.01923 11.48C5.00663 11.6517 5.00021 11.8251 5.00021 12C5.00021 12.1749 5.00663 12.3483 5.01923 12.5199C5.06777 13.1811 4.79594 13.8499 4.22183 14.1814L4.08939 14.2579C3.68533 14.4911 3.49078 14.9754 3.66752 15.4072C3.97816 16.1661 4.38946 16.8731 4.88483 17.5117C5.17081 17.8804 5.68741 17.954 6.09149 17.7207L6.22225 17.6452C6.79683 17.3135 7.51248 17.4131 8.06057 17.7869C8.34544 17.9813 8.64539 18.1551 8.95831 18.3063C9.55582 18.595 10.0002 19.1651 10.0002 19.8287V19.9785C10.0002 20.4455 10.3229 20.8563 10.7857 20.9188C11.1829 20.9723 11.5883 21 12.0002 21C12.4121 21 12.8175 20.9723 13.2146 20.9188C13.6775 20.8563 14.0002 20.4455 14.0002 19.9785V19.8287C14.0002 19.1651 14.4446 18.5951 15.0421 18.3063C15.355 18.1551 15.6549 17.9813 15.9398 17.787C16.4879 17.4131 17.2035 17.3136 17.7781 17.6453L17.9089 17.7208C18.313 17.9541 18.8296 17.8804 19.1156 17.5118C19.6109 16.8732 20.0222 16.1662 20.3329 15.4073C20.5096 14.9755 20.3151 14.4912 19.911 14.2579L19.7786 14.1815C19.2045 13.85 18.9326 13.1811 18.9812 12.52C18.9938 12.3483 19.0002 12.1749 19.0002 12C19.0002 11.8251 18.9938 11.6517 18.9812 11.48C18.9326 10.8188 19.2045 10.15 19.7786 9.8185L19.911 9.74205C20.3151 9.50876 20.5096 9.0245 20.3329 8.5927C20.0222 7.83379 19.6109 7.12676 19.1155 6.4882C18.8295 6.11955 18.3129 6.04588 17.9089 6.27917L17.7781 6.35469C17.2035 6.68641 16.4879 6.58685 15.9398 6.213C15.6549 6.01871 15.355 5.8449 15.0421 5.69369C14.4446 5.40495 14.0002 4.8349 14.0002 4.17127V4.02152Z" stroke="#C2C2C2" stroke-width="1.5"/>
</g>
</svg>
