<svg width="117" height="44" viewBox="0 0 117 44" fill="none" xmlns="http://www.w3.org/2000/svg">
<g id="Logo / black 2">
<g id="Coca">
<path d="M48 21.4735C48 19.6388 48.4049 18.007 49.2147 16.578C50.0246 15.1314 51.1493 14.0111 52.589 13.2173C54.0467 12.4058 55.6934 12 57.529 12C59.7786 12 61.7042 12.5822 63.3058 13.7465C64.9075 14.9109 65.9783 16.4986 66.5182 18.5097H61.4432C61.0653 17.7335 60.5254 17.1425 59.8236 16.7368C59.1397 16.331 58.3569 16.1281 57.475 16.1281C56.0533 16.1281 54.9016 16.6133 54.0198 17.5836C53.1379 18.5539 52.697 19.8505 52.697 21.4735C52.697 23.0966 53.1379 24.3932 54.0198 25.3635C54.9016 26.3338 56.0533 26.8189 57.475 26.8189C58.3569 26.8189 59.1397 26.6161 59.8236 26.2103C60.5254 25.8045 61.0653 25.2136 61.4432 24.4373H66.5182C65.9783 26.4485 64.9075 28.0362 63.3058 29.2006C61.7042 30.3473 59.7786 30.9206 57.529 30.9206C55.6934 30.9206 54.0467 30.5237 52.589 29.7298C51.1493 28.9183 50.0246 27.7981 49.2147 26.3691C48.4049 24.9401 48 23.3083 48 21.4735Z" fill="#F2F2F2"/>
<path d="M74.5819 31C73.1062 31 71.7745 30.6913 70.5867 30.0738C69.417 29.4564 68.4902 28.5743 67.8063 27.4276C67.1404 26.2809 66.8075 24.9401 66.8075 23.4053C66.8075 21.8881 67.1494 20.5562 67.8333 19.4095C68.5172 18.2451 69.453 17.3542 70.6407 16.7368C71.8285 16.1193 73.1602 15.8106 74.6359 15.8106C76.1116 15.8106 77.4433 16.1193 78.6311 16.7368C79.8188 17.3542 80.7546 18.2451 81.4385 19.4095C82.1223 20.5562 82.4643 21.8881 82.4643 23.4053C82.4643 24.9225 82.1133 26.2632 81.4115 27.4276C80.7276 28.5743 79.7828 29.4564 78.5771 30.0738C77.3893 30.6913 76.0576 31 74.5819 31ZM74.5819 27.0836C75.4637 27.0836 76.2106 26.766 76.8224 26.1309C77.4523 25.4958 77.7672 24.5873 77.7672 23.4053C77.7672 22.2233 77.4613 21.3148 76.8494 20.6797C76.2555 20.0446 75.5177 19.727 74.6359 19.727C73.7361 19.727 72.9892 20.0446 72.3953 20.6797C71.8015 21.2971 71.5045 22.2057 71.5045 23.4053C71.5045 24.5873 71.7925 25.4958 72.3684 26.1309C72.9622 26.766 73.7001 27.0836 74.5819 27.0836Z" fill="#F2F2F2"/>
<path d="M82.3757 23.4053C82.3757 21.8705 82.6906 20.5297 83.3205 19.383C83.9684 18.2363 84.8592 17.3542 85.9929 16.7368C87.1447 16.1193 88.4584 15.8106 89.9341 15.8106C91.8237 15.8106 93.3984 16.2957 94.6581 17.266C95.9359 18.2363 96.7727 19.6035 97.1686 21.3677H92.2556C91.8417 20.2386 91.0409 19.6741 89.8531 19.6741C89.0073 19.6741 88.3325 20.0005 87.8286 20.6532C87.3247 21.2883 87.0727 22.2057 87.0727 23.4053C87.0727 24.6049 87.3247 25.5311 87.8286 26.1838C88.3325 26.8189 89.0073 27.1365 89.8531 27.1365C91.0409 27.1365 91.8417 26.572 92.2556 25.4429H97.1686C96.7727 27.1718 95.9359 28.5302 94.6581 29.5181C93.3804 30.506 91.8057 31 89.9341 31C88.4584 31 87.1447 30.6913 85.9929 30.0738C84.8592 29.4564 83.9684 28.5743 83.3205 27.4276C82.6906 26.2809 82.3757 24.9401 82.3757 23.4053Z" fill="#F2F2F2"/>
<path d="M97.1003 23.3788C97.1003 21.8617 97.3882 20.5297 97.9641 19.383C98.558 18.2363 99.3588 17.3542 100.367 16.7368C101.374 16.1193 102.499 15.8106 103.741 15.8106C104.803 15.8106 105.73 16.0223 106.521 16.4457C107.331 16.8691 107.952 17.4248 108.384 18.1128V16.0223H113V30.7883H108.384V28.6978C107.934 29.3858 107.304 29.9415 106.494 30.3649C105.703 30.7883 104.776 31 103.714 31C102.49 31 101.374 30.6913 100.367 30.0738C99.3588 29.4387 98.558 28.5478 97.9641 27.4011C97.3882 26.2368 97.1003 24.896 97.1003 23.3788ZM108.384 23.4053C108.384 22.2762 108.06 21.3853 107.412 20.7326C106.782 20.0799 106.008 19.7535 105.091 19.7535C104.173 19.7535 103.39 20.0799 102.742 20.7326C102.112 21.3677 101.797 22.2498 101.797 23.3788C101.797 24.5079 102.112 25.4076 102.742 26.078C103.39 26.7307 104.173 27.0571 105.091 27.0571C106.008 27.0571 106.782 26.7307 107.412 26.078C108.06 25.4253 108.384 24.5344 108.384 23.4053Z" fill="#F2F2F2"/>
</g>
<path id="Vector" d="M38.5137 14.8728C37.8384 13.3282 36.9447 11.8887 35.8597 10.5986C34.2561 8.63456 32.2547 7.03248 29.9874 5.89786C27.7201 4.76324 25.2382 4.12179 22.7052 4.01572C20.1723 3.90965 17.6455 4.34136 15.2913 5.28247C12.9372 6.22357 10.8089 7.65271 9.04671 9.47584C7.28448 11.2989 5.92822 13.4747 5.0672 15.8599C4.20618 18.2451 3.8599 20.7857 4.05117 23.3144C4.24246 25.8431 4.96693 28.3026 6.17694 30.531C7.38695 32.7596 9.05506 34.7064 11.0715 36.2435C12.3653 37.2495 13.7949 38.0673 15.3178 38.6726C17.453 39.5479 19.7382 39.9987 22.0457 40C26.8088 39.9895 31.3734 38.0903 34.7391 34.7188C38.1046 31.3472 39.9965 26.7785 40 22.0141C40.0034 19.5564 39.4974 17.1248 38.5137 14.8728ZM22.0324 7.66511C24.1047 7.6649 26.1518 8.11793 28.0305 8.99249C27.5724 9.19049 27.0907 9.32879 26.5973 9.40399C24.9739 9.63905 23.47 10.393 22.31 11.5532C21.1501 12.7135 20.3964 14.2178 20.1614 15.8418C20.0583 16.7525 19.6441 17.5997 18.989 18.2406C18.3338 18.8815 17.4778 19.2765 16.5652 19.3593C14.9418 19.5944 13.4378 20.3483 12.2779 21.5086C11.118 22.6689 10.3643 24.1732 10.1293 25.7971C10.0497 26.6631 9.68035 27.4769 9.08096 28.1067C8.04676 25.9209 7.58218 23.5088 7.73043 21.0951C7.87868 18.6814 8.63495 16.3444 9.92887 14.3016C11.2228 12.2589 13.0123 10.5767 15.1309 9.41174C17.2494 8.24674 19.6282 7.63677 22.0457 7.63856L22.0324 7.66511ZM11.0582 31.3057C11.2174 31.1597 11.3767 31.0269 11.5359 30.8677C12.7165 29.7228 13.4743 28.2114 13.6856 26.5802C13.7713 25.6633 14.1806 24.8069 14.8401 24.1644C15.4748 23.5036 16.329 23.0976 17.242 23.0229C18.8654 22.7878 20.3693 22.0338 21.5292 20.8736C22.6892 19.7133 23.4429 18.209 23.6779 16.5851C23.7354 15.6261 24.1467 14.7225 24.8324 14.0498C25.4828 13.4018 26.345 13.0106 27.2608 12.9481C28.7522 12.7428 30.1432 12.0796 31.2418 11.0499C32.4928 12.088 33.5525 13.3369 34.3735 14.74C34.3231 14.8081 34.2652 14.8705 34.201 14.9259C33.5676 15.5925 32.7145 16.0074 31.7991 16.094C30.174 16.3249 28.6678 17.0775 27.5071 18.2385C26.3465 19.3995 25.5941 20.9061 25.3632 22.5317C25.2696 23.4455 24.8632 24.2989 24.2127 24.9472C23.5621 25.5956 22.7075 25.999 21.7936 26.0891C20.1654 26.3223 18.6559 27.0748 17.4892 28.2345C16.3226 29.3944 15.5611 30.8996 15.3178 32.5269C15.2464 33.1756 15.0236 33.7985 14.6676 34.3454C13.3061 33.5367 12.0867 32.5099 11.0582 31.3057ZM22.0324 36.4294C20.6859 36.4308 19.3458 36.2431 18.0514 35.8719C18.4943 35.0462 18.7821 34.1464 18.9007 33.2171C18.9937 32.3053 19.3983 31.4536 20.0462 30.8055C20.694 30.1575 21.5456 29.7528 22.4571 29.6597C24.0829 29.4273 25.5899 28.6746 26.7524 27.514C27.9149 26.3536 28.6706 24.8477 28.9063 23.222C28.9993 22.3102 29.4039 21.4584 30.0518 20.8104C30.6996 20.1624 31.5511 19.7577 32.4626 19.6646C33.6861 19.5054 34.8523 19.0498 35.8597 18.3372C36.4192 20.4582 36.4854 22.6792 36.0535 24.8298C35.6216 26.9804 34.7027 29.0036 33.3678 30.7439C32.0328 32.4841 30.3171 33.8955 28.3521 34.8696C26.3872 35.8436 24.2254 36.3545 22.0324 36.363V36.4294Z" fill="#FF5C00"/>
</g>
</svg>
