<svg width="24" height="24" viewBox="0 0 24 24" fill="none" xmlns="http://www.w3.org/2000/svg">
<g id="Icon / line / projector-screen-chart">
<path id="Vector" d="M12.75 16C12.75 15.5858 12.4142 15.25 12 15.25C11.5858 15.25 11.25 15.5858 11.25 16H12.75ZM3 15.25C2.58579 15.25 2.25 15.5858 2.25 16C2.25 16.4142 2.58579 16.75 3 16.75V15.25ZM21 16.75C21.4142 16.75 21.75 16.4142 21.75 16C21.75 15.5858 21.4142 15.25 21 15.25V16.75ZM13.25 19.75H12.5C12.5 20.0261 12.2761 20.25 12 20.25V21V21.75C13.1046 21.75 14 20.8546 14 19.75H13.25ZM12 21V20.25C11.7239 20.25 11.5 20.0261 11.5 19.75H10.75H10C10 20.8546 10.8954 21.75 12 21.75V21ZM10.75 19.75H11.5C11.5 19.4739 11.7239 19.25 12 19.25V18.5V17.75C10.8954 17.75 10 18.6454 10 19.75H10.75ZM12 18.5V19.25C12.2761 19.25 12.5 19.4739 12.5 19.75H13.25H14C14 18.6454 13.1046 17.75 12 17.75V18.5ZM12 18.5H12.75V16H12H11.25V18.5H12ZM4 3V3.75H20V3V2.25H4V3ZM21 4H20.25V5H21H21.75V4H21ZM20 6V5.25H4V6V6.75H20V6ZM3 5H3.75V4H3H2.25V5H3ZM4 6V5.25C3.86193 5.25 3.75 5.13807 3.75 5H3H2.25C2.25 5.9665 3.0335 6.75 4 6.75V6ZM21 5H20.25C20.25 5.13807 20.1381 5.25 20 5.25V6V6.75C20.9665 6.75 21.75 5.9665 21.75 5H21ZM20 3V3.75C20.1381 3.75 20.25 3.86193 20.25 4H21H21.75C21.75 3.0335 20.9665 2.25 20 2.25V3ZM4 3V2.25C3.0335 2.25 2.25 3.0335 2.25 4H3H3.75C3.75 3.86193 3.86193 3.75 4 3.75V3ZM20 6H19.25V16H20H20.75V6H20ZM20 16V15.25H4V16V16.75H20V16ZM4 16H4.75L4.75 6H4H3.25L3.25 16H4ZM4 16V15.25H3V16V16.75H4V16ZM20 16V16.75H21V16V15.25H20V16Z" fill="#828487"/>
<path id="Vector 359" d="M8.5 13V11.6667M12 13V10.3333M15.5 13V9" stroke="#828487" stroke-width="1.5" stroke-linecap="round"/>
</g>
</svg>
